<svg width="75" height="76" viewBox="0 0 75 76" fill="none" xmlns="http://www.w3.org/2000/svg">
<path d="M0 56.922C0 68.264 5.618 75.684 16.96 75.684C28.408 75.684 34.026 68.264 34.026 56.922V18.656C34.026 7.314 28.408 0 16.96 0C5.618 0 0 7.314 0 18.656V56.922ZM8.162 18.232C8.162 11.448 11.024 7.42 16.96 7.42C23.002 7.42 25.758 11.448 25.758 18.232V57.452C25.758 64.13 23.002 68.158 16.96 68.158C11.024 68.158 8.162 64.13 8.162 57.452V18.232Z" fill="#635854"/>
<path d="M47.5592 74.942H55.8272L74.9072 7.95V0.741997H41.3052V8.162H66.5332L47.5592 74.942Z" fill="#635854"/>
</svg>
